<svg version="1.1" viewBox="0.0 0.0 768.0 768.0" fill="none" stroke="none" stroke-linecap="square" stroke-miterlimit="10" xmlns:xlink="http://www.w3.org/1999/xlink" xmlns="http://www.w3.org/2000/svg"><clipPath id="p.0"><path d="m0 0l768.0 0l0 768.0l-768.0 0l0 -768.0z" clip-rule="nonzero"/></clipPath><g clip-path="url(#p.0)"><path fill="#000000" fill-opacity="0.0" d="m0 0l768.0 0l0 768.0l-768.0 0z" fill-rule="evenodd"/><path fill="#000000" fill-opacity="0.0" d="m16.598425 384.0l0 0c0 -202.9103 164.49129 -367.40158 367.40158 -367.40158l0 0c97.44095 0 190.89099 38.708267 259.79218 107.60943c68.90112 68.90115 107.609375 162.3512 107.609375 259.79214l0 0c0 202.91028 -164.49127 367.40155 -367.40155 367.40155l0 0c-202.9103 0 -367.40158 -164.49127 -367.40158 -367.40155z" fill-rule="evenodd"/><path stroke="#ffffff" stroke-width="8.0" stroke-linejoin="round" stroke-linecap="butt" d="m16.598425 384.0l0 0c0 -202.9103 164.49129 -367.40158 367.40158 -367.40158l0 0c97.44095 0 190.89099 38.708267 259.79218 107.60943c68.90112 68.90115 107.609375 162.3512 107.609375 259.79214l0 0c0 202.91028 -164.49127 367.40155 -367.40155 367.40155l0 0c-202.9103 0 -367.40158 -164.49127 -367.40158 -367.40155z" fill-rule="evenodd"/><path fill="#000000" fill-opacity="0.0" d="m104.90709 82.06614l558.1732 0l0 443.87405l-558.1732 0z" fill-rule="evenodd"/><path fill="#ffffff" d="m231.46873 503.4719q-9.609375 0 -19.484375 -7.46875q-9.859375 -7.46875 -16.53125 -18.125q-6.65625 -10.671875 -6.65625 -20.28125q0 -17.0625 9.0625 -26.65625q9.0625 -9.609375 28.796875 -17.609375l54.406235 -22.390625q10.671875 -4.265625 12.53125 -7.46875q1.875 -3.203125 2.40625 -13.875l1.0625 -34.125q0.53125 -13.859375 -7.734375 -24.0q-8.265625 -10.140625 -23.734375 -10.140625q-8.0 0 -15.999985 2.671875q-8.0 2.671875 -13.328125 6.9375q-3.203125 2.125 -4.28125 6.40625q-1.0625 4.265625 -1.0625 9.0625q0 2.125 0.265625 4.796875q0.28125 2.671875 0.28125 4.796875q0 2.671875 -6.671875 7.203125q-6.671875 4.53125 -14.9375 8.0q-8.265625 3.46875 -13.59375 3.46875q-2.671875 0 -4.28125 -1.328125q-1.59375 -1.34375 -1.59375 -3.46875q0 -8.546875 5.59375 -18.40625q5.609375 -9.859375 15.75 -18.40625q12.265625 -11.1875 26.65625 -19.71875q14.40625 -8.546875 28.26561 -13.34375q13.875 -4.796875 24.53125 -4.796875q19.203125 0 31.734375 13.609375q12.53125 13.59375 12.0 33.859375l-2.65625 128.0q-0.53125 11.1875 5.0625 18.125q5.59375 6.9375 14.125 6.9375q13.34375 0 19.734375 -5.875q2.671875 -2.65625 4.265625 -2.65625q2.671875 0 4.265625 1.609375q1.609375 1.59375 1.609375 4.25q0 5.875 -5.875 11.734375q-8.53125 8.53125 -18.40625 13.59375q-9.859375 5.078125 -18.390625 5.078125q-24.53125 0 -38.921875 -27.734375l-1.609375 0q-17.59375 14.40625 -33.59375 21.0625q-15.999985 6.671875 -33.062485 6.671875zm25.062485 -25.609375q10.65625 0 18.125 -3.453125q7.46875 -3.46875 13.34375 -9.34375q2.65625 -2.65625 4.515625 -7.1875q1.875 -4.546875 2.40625 -14.671875l1.078125 -26.140625q0.53125 -5.859375 -0.546875 -8.515625q-1.0625 -2.671875 -4.265625 -2.671875q-1.0625 0 -3.734375 0.53125q-2.65625 0.53125 -6.921875 2.125q-28.26561 10.140625 -39.20311 21.078125q-10.9375 10.921875 -10.9375 19.984375q0 13.875 8.265625 21.078125q8.265625 7.1875 17.874985 7.1875zm238.92291 26.140625q-26.65625 0 -48.265625 -13.59375q-21.59375 -13.609375 -34.125 -37.34375q-12.53125 -23.734375 -12.53125 -53.0625q0 -34.671875 15.1875 -62.9375q15.203125 -28.265625 40.796875 -45.0625q25.609375 -16.796875 56.546906 -16.796875q34.65625 0 60.796875 18.671875q6.390625 4.796875 6.390625 10.125q0 4.265625 -3.734375 9.609375q-3.71875 5.328125 -9.0625 8.796875q-5.328125 3.46875 -10.125 3.46875q-2.671875 0 -5.34375 -1.859375q-2.65625 -1.875 -5.859375 -4.015625q-11.734375 -9.0625 -26.140625 -17.0625q-14.3906555 -8.0 -24.00003 -8.0q-26.125 0 -42.390625 24.265625q-16.265625 24.265625 -16.265625 63.734375q0 25.0625 10.921875 45.328125q10.9375 20.265625 29.328125 32.0q18.40625 11.734375 40.81253 11.734375q15.46875 0 26.65625 -5.0625q11.203125 -5.078125 24.015625 -17.875q1.0625 -1.0625 2.65625 -1.859375q1.609375 -0.796875 2.671875 -0.796875q5.859375 0 5.859375 7.453125q0 3.203125 -1.859375 7.203125q-1.859375 4.0 -6.140625 9.34375q-8.53125 10.65625 -20.265625 18.390625q-11.734375 7.734375 -25.875 11.46875q-14.1250305 3.734375 -30.65628 3.734375z" fill-rule="nonzero"/></g></svg>